<svg width="27" height="26" viewBox="0 0 27 26" fill="none" xmlns="http://www.w3.org/2000/svg">
<path d="M22.4375 25.0833H4.5625C3.37731 25.0833 2.24067 24.6004 1.40262 23.7409C0.564563 22.8814 0.09375 21.7156 0.09375 20.5V5.5C0.09375 4.28442 0.564563 3.11863 1.40262 2.25909C2.24067 1.39955 3.37731 0.916665 4.5625 0.916665H8.625C8.79916 0.916176 8.97151 0.952984 9.131 1.02473C9.2905 1.09648 9.43363 1.20159 9.55125 1.33333L14.0525 6.73333H22.4375C23.0257 6.73333 23.6081 6.85243 24.1514 7.0838C24.6946 7.31518 25.188 7.65428 25.6031 8.08165C26.0183 8.50901 26.3471 9.01625 26.5708 9.57425C26.7944 10.1322 26.9084 10.73 26.9062 11.3333V20.5C26.9062 21.7156 26.4354 22.8814 25.5974 23.7409C24.7593 24.6004 23.6227 25.0833 22.4375 25.0833ZM4.5625 3.41666C4.02378 3.41666 3.50712 3.63616 3.12619 4.02686C2.74526 4.41756 2.53125 4.94746 2.53125 5.5V20.5C2.53125 21.0525 2.74526 21.5824 3.12619 21.9731C3.50712 22.3638 4.02378 22.5833 4.5625 22.5833H22.4375C22.9762 22.5833 23.4929 22.3638 23.8738 21.9731C24.2547 21.5824 24.4688 21.0525 24.4688 20.5V11.3333C24.4688 10.7808 24.2547 10.2509 23.8738 9.86019C23.4929 9.46949 22.9762 9.25 22.4375 9.25H13.5C13.3246 9.24838 13.1515 9.20897 12.992 9.13432C12.8324 9.05966 12.6899 8.95144 12.5738 8.81666L8.0725 3.41666H4.5625Z" fill="black"/>
</svg>
