<svg width="238" height="30" viewBox="0 0 238 30" fill="none" xmlns="http://www.w3.org/2000/svg">
<path d="M0 26.7753L2.18679 21.9234C4.89084 23.7896 8.09273 24.8014 11.3781 24.8277C15.1965 24.8277 16.7511 23.5464 16.7511 21.838C16.7511 16.6273 0.555239 20.2064 0.555239 9.87898C0.555239 5.14664 4.3992 1.20444 12.2964 1.20444C15.7944 1.20444 19.3779 2.05865 21.9619 3.67312L19.9715 8.54214C17.6308 7.1604 14.9715 6.40984 12.2537 6.36389C8.43537 6.36389 6.96185 7.79897 6.96185 9.55011C6.96185 14.6754 23.1578 11.139 23.1578 21.3639C23.1578 26.0194 19.3138 30 11.3397 30C6.92341 30 2.46868 28.6888 0 26.7753Z" fill="white"/>
<path d="M47.9812 20.5695H31.7896C32.3875 23.2346 34.6512 24.8662 37.9143 24.8662C38.9035 24.9061 39.8905 24.7433 40.8144 24.3879C41.7384 24.0324 42.58 23.4917 43.2873 22.799L46.5889 26.3781C44.5985 28.6461 41.6173 29.842 37.7563 29.842C30.3545 29.842 25.541 25.1865 25.541 18.8183C25.541 12.4502 30.4357 7.79898 36.9619 7.79898C43.2489 7.79898 48.1008 12.0145 48.1008 18.9038C48.1008 19.3779 48.0197 20.074 47.9812 20.5695ZM31.7084 16.9476H42.2537C42.0953 15.682 41.4675 14.5219 40.4947 13.697C39.5219 12.8721 38.2748 12.4423 37.0003 12.4929C34.1686 12.4929 32.1484 14.2056 31.7084 16.9476Z" fill="white"/>
<path d="M70.5796 17.3064V29.5217H64.7709V26.8565C63.6177 28.8041 61.3882 29.8463 58.2447 29.8463C53.2347 29.8463 50.2493 27.0615 50.2493 23.3585C50.2493 19.5786 52.9144 16.9519 59.4406 16.9519H64.3737C64.3737 14.2868 62.7806 12.7364 59.4406 12.7364C57.224 12.7178 55.0608 13.4159 53.2732 14.7267L51.0437 10.3873C53.3928 8.71728 56.8523 7.82462 60.2735 7.82462C66.7997 7.799 70.5796 10.8229 70.5796 17.3064ZM64.3737 22.7563V20.5695H60.1026C57.1983 20.5695 56.2843 21.6458 56.2843 23.0766C56.2843 24.627 57.5955 25.6393 59.7866 25.6393C61.8666 25.6606 63.6391 24.7082 64.3737 22.7563Z" fill="white"/>
<path d="M89.4791 7.79898V13.5265C88.9623 13.488 88.5651 13.4496 88.0867 13.4496C84.6698 13.4496 82.3976 15.3161 82.3976 19.4291V29.5217H76.1875V8.11504H82.1157V10.9425C83.6277 8.87102 86.1775 7.79898 89.4791 7.79898Z" fill="white"/>
<path d="M91.4009 18.8183C91.4009 12.3733 96.3724 7.79898 103.339 7.79898C107.832 7.79898 111.372 9.74659 112.927 13.2489L108.109 15.8371C106.956 13.8041 105.248 12.8901 103.296 12.8901C100.152 12.8901 97.6879 15.0812 97.6879 18.8183C97.6879 22.5555 100.152 24.7466 103.296 24.7466C105.248 24.7466 106.956 23.8924 108.109 21.8038L112.927 24.4305C111.372 27.8474 107.832 29.842 103.339 29.842C96.3596 29.842 91.4009 25.2634 91.4009 18.8183Z" fill="white"/>
<path d="M138.216 17.2679V29.5217H132.01V18.2247C132.01 14.7608 130.417 13.1677 127.671 13.1677C124.681 13.1677 122.546 15 122.546 18.9379V29.5217H116.331V0H122.541V10.3445C124.211 8.67455 126.599 7.78189 129.345 7.78189C134.398 7.79898 138.216 10.7417 138.216 17.2679Z" fill="white"/>
<path d="M181.064 1.66998V29.5216H174.619V18.1051H161.968V29.5216H155.523V1.66998H161.968V12.6509H174.619V1.66998H181.064Z" fill="white"/>
<path d="M208.796 8.11502V29.5216H202.906V26.959C202.071 27.8876 201.045 28.6245 199.899 29.1192C198.752 29.6139 197.512 29.8546 196.264 29.8249C190.891 29.8249 187.111 26.801 187.111 20.1936V8.11502H193.317V19.2967C193.317 22.8758 194.91 24.469 197.657 24.469C200.518 24.469 202.59 22.6409 202.59 18.6987V8.11502H208.796Z" fill="white"/>
<path d="M237.899 18.8183C237.899 25.5453 233.243 29.842 227.221 29.842C224.355 29.842 222.049 28.9237 220.498 27.0572V29.5216H214.566V0H220.772V10.383C222.361 8.63183 224.552 7.82033 227.217 7.82033C233.222 7.79898 237.899 12.0957 237.899 18.8183ZM231.616 18.8183C231.616 15.1196 229.267 12.8901 226.162 12.8901C223.057 12.8901 220.712 15.1196 220.712 18.8183C220.712 22.5171 223.061 24.7466 226.162 24.7466C229.263 24.7466 231.595 22.5214 231.595 18.8183H231.616Z" fill="white"/>
<path d="M219.806 19.6683V18.0154L219.87 17.631C220.142 15.8748 221.044 14.2777 222.407 13.1378C223.354 12.2867 224.508 11.6994 225.753 11.4347C226.998 11.1701 228.291 11.2375 229.502 11.6301C231.089 12.1103 232.473 13.1001 233.44 14.4465C234.408 15.7929 234.905 17.4206 234.853 19.0777C234.802 20.7349 234.206 22.3289 233.158 23.6132C232.109 24.8974 230.667 25.8002 229.053 26.1817C228.75 26.25 228.447 26.297 228.144 26.3568H226.495L226.034 26.2714C224.578 26.0184 223.228 25.3437 222.152 24.3308C221.077 23.318 220.322 22.0116 219.981 20.5737C219.909 20.2748 219.862 19.9672 219.806 19.6683ZM229.429 20.2321C229.879 19.6082 230.077 18.8375 229.984 18.0739C229.89 17.3103 229.512 16.6102 228.925 16.1134C228.337 15.6166 227.584 15.3599 226.816 15.3944C226.047 15.429 225.32 15.7523 224.779 16.2998C224.239 16.8472 223.925 17.5785 223.9 18.3474C223.876 19.1163 224.142 19.8661 224.647 20.4471C225.151 21.028 225.856 21.3972 226.621 21.4809C227.385 21.5645 228.153 21.3565 228.771 20.8983C228.806 20.9325 228.848 20.9667 228.882 21.0051L229.946 22.0686C229.987 22.1237 230.039 22.1696 230.099 22.2033C230.159 22.237 230.225 22.2577 230.294 22.2642C230.362 22.2706 230.431 22.2626 230.496 22.2407C230.562 22.2188 230.621 22.1834 230.672 22.137C230.72 22.0878 230.758 22.0288 230.782 21.964C230.805 21.8992 230.815 21.8301 230.81 21.7613C230.804 21.6925 230.784 21.6256 230.751 21.5651C230.718 21.5047 230.672 21.4521 230.616 21.4109C230.386 21.176 230.155 20.9411 229.92 20.7104L229.429 20.2321Z" fill="white"/>
<path d="M229.07 18.4126C229.07 18.835 228.945 19.2479 228.71 19.599C228.476 19.9502 228.142 20.2239 227.752 20.3856C227.362 20.5472 226.932 20.5895 226.518 20.5071C226.104 20.4247 225.723 20.2213 225.425 19.9227C225.126 19.624 224.923 19.2435 224.84 18.8292C224.758 18.415 224.8 17.9856 224.962 17.5954C225.124 17.2052 225.397 16.8716 225.748 16.637C226.1 16.4023 226.512 16.2771 226.935 16.2771C227.501 16.2771 228.044 16.5021 228.445 16.9026C228.845 17.303 229.07 17.8462 229.07 18.4126Z" fill="white"/>
</svg>
